<svg width="25" height="25" viewBox="0 0 25 25" fill="none" xmlns="http://www.w3.org/2000/svg">
<path d="M11.479 9.7373L9.28174 9.07812C9.02979 9.00244 8.85352 8.74707 8.85352 8.45654C8.85352 8.10156 9.1123 7.8125 9.42969 7.8125H10.8022C11.0249 7.8125 11.2397 7.87549 11.4282 7.99414C11.5864 8.09326 11.7876 8.0874 11.9229 7.9585L12.4966 7.41113C12.6689 7.24658 12.6592 6.96143 12.4688 6.81836C12.0244 6.48486 11.4883 6.29248 10.937 6.26416V5.46875C10.937 5.25293 10.7622 5.07812 10.5464 5.07812H9.76514C9.54932 5.07812 9.37451 5.25293 9.37451 5.46875V6.25586C8.22119 6.28662 7.29102 7.25928 7.29102 8.45654C7.29102 9.43164 7.9248 10.3027 8.83301 10.5752L11.0303 11.2344C11.2822 11.3101 11.4585 11.5654 11.4585 11.856C11.4585 12.2109 11.1997 12.5 10.8823 12.5H9.50977C9.28711 12.5 9.07227 12.437 8.88379 12.3184C8.72559 12.2192 8.52441 12.2251 8.38916 12.354L7.81543 12.9014C7.64307 13.0659 7.65283 13.3511 7.84326 13.4941C8.2876 13.8276 8.82373 14.02 9.375 14.0483V14.8437C9.375 15.0596 9.5498 15.2344 9.76562 15.2344H10.5469C10.7627 15.2344 10.9375 15.0596 10.9375 14.8437V14.0566C12.0908 14.0259 13.021 13.0537 13.021 11.856C13.021 10.8809 12.3872 10.0098 11.479 9.7373ZM24.8276 22.8945L18.9004 16.9668C18.7881 16.8545 18.6416 16.7959 18.4854 16.7959H17.8408C19.3789 15.0137 20.3115 12.6943 20.3115 10.1558C20.3115 4.5459 15.7656 0 10.1558 0C4.5459 0 0 4.5459 0 10.1558C0 15.7656 4.5459 20.3115 10.1558 20.3115C12.6948 20.3115 15.0137 19.3789 16.7959 17.8408V18.4853C16.7959 18.6416 16.8594 18.7881 16.9668 18.9004L22.894 24.8276C23.1235 25.0571 23.4946 25.0571 23.7241 24.8276L24.8276 23.7241C25.0576 23.4951 25.0576 23.124 24.8276 22.8945ZM10.1558 17.9678C5.83936 17.9678 2.34375 14.4717 2.34375 10.1558C2.34375 5.83935 5.83936 2.34375 10.1558 2.34375C14.4717 2.34375 17.9678 5.83984 17.9678 10.1558C17.9678 14.4722 14.4717 17.9678 10.1558 17.9678Z" fill="#868685"/>
</svg>
