<svg width="22" height="19" viewBox="0 0 22 19" fill="none" xmlns="http://www.w3.org/2000/svg">
<path d="M21.3125 8.96875H8.93753C8.7552 8.96875 8.58033 9.04118 8.4514 9.17011C8.32247 9.29904 8.25003 9.47391 8.25003 9.65625V10.3437C8.25003 10.5261 8.32247 10.701 8.4514 10.8299C8.58033 10.9588 8.7552 11.0312 8.93753 11.0312H21.3125C21.4949 11.0312 21.6697 10.9588 21.7987 10.8299C21.9276 10.701 22 10.5261 22 10.3437V9.65625C22 9.47391 21.9276 9.29904 21.7987 9.17011C21.6697 9.04118 21.4949 8.96875 21.3125 8.96875ZM21.3125 15.8437H8.93753C8.7552 15.8437 8.58033 15.9162 8.4514 16.0451C8.32247 16.174 8.25003 16.3489 8.25003 16.5312V17.2187C8.25003 17.4011 8.32247 17.576 8.4514 17.7049C8.58033 17.8338 8.7552 17.9062 8.93753 17.9062H21.3125C21.4949 17.9062 21.6697 17.8338 21.7987 17.7049C21.9276 17.576 22 17.4011 22 17.2187V16.5312C22 16.3489 21.9276 16.174 21.7987 16.0451C21.6697 15.9162 21.4949 15.8437 21.3125 15.8437ZM21.3125 2.09375H8.93753C8.7552 2.09375 8.58033 2.16618 8.4514 2.29511C8.32247 2.42404 8.25003 2.59891 8.25003 2.78125V3.46875C8.25003 3.65108 8.32247 3.82595 8.4514 3.95488C8.58033 4.08382 8.7552 4.15625 8.93753 4.15625H21.3125C21.4949 4.15625 21.6697 4.08382 21.7987 3.95488C21.9276 3.82595 22 3.65108 22 3.46875V2.78125C22 2.59891 21.9276 2.42404 21.7987 2.29511C21.6697 2.16618 21.4949 2.09375 21.3125 2.09375ZM2.76292 14.8125C1.63285 14.8125 0.687533 15.7363 0.687533 16.875C0.687533 18.0137 1.63285 18.9375 2.76292 18.9375C3.30993 18.9375 3.83454 18.7202 4.22133 18.3334C4.60813 17.9466 4.82542 17.422 4.82542 16.875C4.82542 16.328 4.60813 15.8034 4.22133 15.4166C3.83454 15.0298 3.30993 14.8125 2.76292 14.8125ZM5.99675 7.39996C5.8995 7.30381 5.76827 7.24989 5.63152 7.24989C5.49477 7.24989 5.36353 7.30381 5.26628 7.39996L2.53089 10.1199L1.55636 9.17715C1.50846 9.12908 1.45154 9.09094 1.38886 9.06491C1.32619 9.03889 1.25899 9.02549 1.19113 9.02549C1.12326 9.02549 1.05607 9.03889 0.993392 9.06491C0.930717 9.09094 0.873796 9.12908 0.825893 9.17715L0.151713 9.8466C0.103631 9.89401 0.0654508 9.9505 0.0393909 10.0128C0.013331 10.0751 -8.88022e-05 10.1419 -8.88022e-05 10.2095C-8.88022e-05 10.277 0.013331 10.3438 0.0393909 10.4061C0.0654508 10.4684 0.103631 10.5249 0.151713 10.5723L2.19144 12.6C2.29364 12.6963 2.42874 12.7499 2.56913 12.7499C2.70953 12.7499 2.84463 12.6963 2.94683 12.6L3.62144 11.9302L6.72249 8.84758C6.77028 8.80052 6.8083 8.74449 6.83438 8.6827C6.86047 8.62092 6.8741 8.55459 6.8745 8.48753C6.8749 8.42047 6.86206 8.35398 6.83671 8.29189C6.81136 8.2298 6.77401 8.17333 6.72679 8.1257L5.99675 7.39996ZM5.99675 0.524959C5.94885 0.476889 5.89193 0.438748 5.82925 0.412723C5.76658 0.386699 5.69938 0.373302 5.63152 0.373302C5.56365 0.373302 5.49646 0.386699 5.43378 0.412723C5.37111 0.438748 5.31419 0.476889 5.26628 0.524959L2.53132 3.23887L1.55636 2.29055C1.45922 2.19419 1.32795 2.14013 1.19113 2.14013C1.05431 2.14013 0.923031 2.19419 0.825893 2.29055L0.151713 2.9643C0.103605 3.01196 0.0654179 3.06868 0.0393569 3.13118C0.013296 3.19369 -0.00012207 3.26074 -0.00012207 3.32845C-0.00012207 3.39617 0.013296 3.46322 0.0393569 3.52573C0.0654179 3.58823 0.103605 3.64495 0.151713 3.69262L2.19574 5.72418C2.29783 5.82098 2.43317 5.87494 2.57386 5.87494C2.71455 5.87494 2.84989 5.82098 2.95199 5.72418L3.62187 5.05472L6.72292 1.96097C6.82006 1.86452 6.87504 1.73352 6.87584 1.59663C6.87665 1.45974 6.82321 1.3281 6.72722 1.23051L5.99675 0.524959Z" fill="#868685"/>
</svg>
