<svg width="27" height="20" viewBox="0 0 27 20" fill="none" xmlns="http://www.w3.org/2000/svg">
<path d="M25.65 0.375H1.35C0.604547 0.375 0 0.990742 0 1.75V18.25C0 19.0093 0.604547 19.625 1.35 19.625H25.65C26.3955 19.625 27 19.0093 27 18.25V1.75C27 0.990742 26.3955 0.375 25.65 0.375ZM24.975 17.5625H2.025V2.4375H24.975V17.5625ZM12.4875 12.75H15.8625C16.049 12.75 16.2 12.5962 16.2 12.4062V11.0312C16.2 10.8413 16.049 10.6875 15.8625 10.6875H12.4875C12.301 10.6875 12.15 10.8413 12.15 11.0312V12.4062C12.15 12.5962 12.301 12.75 12.4875 12.75ZM22.6125 10.6875H19.2375C19.051 10.6875 18.9 10.8413 18.9 11.0312V12.4062C18.9 12.5962 19.051 12.75 19.2375 12.75H22.6125C22.799 12.75 22.95 12.5962 22.95 12.4062V11.0312C22.95 10.8413 22.799 10.6875 22.6125 10.6875ZM12.4875 9.3125H22.6125C22.799 9.3125 22.95 9.15867 22.95 8.96875V7.59375C22.95 7.40383 22.799 7.25 22.6125 7.25H12.4875C12.301 7.25 12.15 7.40383 12.15 7.59375V8.96875C12.15 9.15867 12.301 9.3125 12.4875 9.3125ZM5.6835 10.0739L7.46339 10.5655C7.64016 10.6145 7.7625 10.761 7.7625 10.9221C7.7625 11.1284 7.57266 11.2959 7.33809 11.2959H6.22688C6.0518 11.2959 5.87967 11.2512 5.73033 11.1692C5.60039 11.0974 5.44177 11.1103 5.34052 11.2199L4.83131 11.7669C4.70011 11.9078 4.72163 12.1381 4.87898 12.2477C5.22914 12.4905 5.64089 12.6293 6.075 12.6568V13.0938C6.075 13.2837 6.22603 13.4375 6.4125 13.4375H7.0875C7.27397 13.4375 7.425 13.2837 7.425 13.0938V12.6533C8.36072 12.6061 9.1125 11.8554 9.1125 10.9217C9.1125 10.1409 8.58009 9.44871 7.8165 9.23859L6.03661 8.74703C5.85984 8.69805 5.7375 8.55152 5.7375 8.39039C5.7375 8.18414 5.92734 8.01656 6.16191 8.01656H7.27312C7.4482 8.01656 7.62033 8.06125 7.76967 8.14332C7.89961 8.21465 8.05823 8.20219 8.15948 8.09262L8.66869 7.54563C8.79989 7.40469 8.77838 7.17438 8.62102 7.06481C8.27086 6.82203 7.85911 6.68324 7.425 6.65574V6.21875C7.425 6.02883 7.27397 5.875 7.0875 5.875H6.4125C6.22603 5.875 6.075 6.02883 6.075 6.21875V6.65918C5.13928 6.70645 4.3875 7.45711 4.3875 8.39082C4.3875 9.17156 4.91991 9.86379 5.6835 10.0739Z" fill="#868685"/>
</svg>
