<svg width="24" height="21" viewBox="0 0 24 21" fill="none" xmlns="http://www.w3.org/2000/svg">
<path d="M23.4201 9.2943L12.9095 0.759142C12.6514 0.551956 12.3298 0.438965 11.9982 0.438965C11.6665 0.438965 11.3449 0.551956 11.0868 0.759142L0.57983 9.2943C0.505709 9.35441 0.458571 9.44133 0.448755 9.53598C0.438939 9.63064 0.467247 9.72531 0.527469 9.79922L0.983371 10.3567C1.04354 10.4301 1.13041 10.477 1.22509 10.487C1.31978 10.497 1.4146 10.4694 1.48893 10.4102L3.3333 8.91066V19.8267C3.3333 20.0173 3.40939 20.2001 3.54484 20.3349C3.68028 20.4697 3.86398 20.5454 4.05552 20.5454H9.8333C10.0248 20.5454 10.2085 20.4697 10.344 20.3349C10.4794 20.2001 10.5555 20.0173 10.5555 19.8267V14.0767L13.4444 14.0902V19.8437C13.4444 20.0344 13.5205 20.2172 13.6559 20.352C13.7914 20.4868 13.9751 20.5625 14.1666 20.5625L19.9444 20.5477C20.136 20.5477 20.3197 20.4719 20.4551 20.3372C20.5905 20.2024 20.6666 20.0196 20.6666 19.8289V8.91066L22.511 10.4102C22.5853 10.4702 22.6805 10.4985 22.7758 10.4887C22.871 10.4789 22.9584 10.4319 23.0188 10.358L23.4747 9.80057C23.5046 9.76379 23.5269 9.7215 23.5404 9.67613C23.5538 9.63075 23.5581 9.58318 23.5531 9.53615C23.548 9.48911 23.5336 9.44353 23.5108 9.40203C23.488 9.36053 23.4572 9.32392 23.4201 9.2943ZM19.2172 19.1138H19.2217L14.8884 19.1272V13.3696C14.8878 13.1796 14.8118 12.9974 14.677 12.8628C14.5422 12.7282 14.3594 12.652 14.1684 12.6509L9.83511 12.6387C9.74007 12.6384 9.64592 12.6568 9.55803 12.6928C9.47015 12.7288 9.39026 12.7817 9.32296 12.8485C9.25566 12.9152 9.20225 12.9946 9.16582 13.0819C9.12938 13.1693 9.11063 13.2629 9.11063 13.3575V19.1138H4.77775V7.73775L12 1.87231L19.2222 7.73775L19.2172 19.1138Z" fill="#868685"/>
</svg>
