<svg width="18" height="17" viewBox="0 0 18 17" fill="none" xmlns="http://www.w3.org/2000/svg">
<path d="M9.00153 16.6469L9.27643 16.3845C9.4586 16.2106 9.4586 15.9287 9.27643 15.7547L2.33721 9.13093H16.9504C17.208 9.13093 17.4169 8.93154 17.4169 8.68561V8.31452C17.4169 8.0686 17.208 7.86921 16.9504 7.86921H2.33721L9.27643 1.24541C9.4586 1.07151 9.4586 0.789555 9.27643 0.615624L9.00153 0.35326C8.81935 0.179366 8.52397 0.179366 8.34179 0.35326L0.136876 8.18519C-0.0452997 8.35909 -0.0452997 8.64105 0.136876 8.81498L8.34179 16.6469C8.52397 16.8208 8.81935 16.8208 9.00153 16.6469Z" fill="#00A1DE"/>
</svg>
