<svg width="20" height="18" viewBox="0 0 20 18" fill="none" xmlns="http://www.w3.org/2000/svg">
<path d="M14.5069 10.9549L15.2014 10.2604C15.3333 10.1285 15.5556 10.2222 15.5556 10.4063V16.1111C15.5556 17.0312 14.809 17.7778 13.8889 17.7778H1.66667C0.746528 17.7778 0 17.0312 0 16.1111V3.88889C0 2.96875 0.746528 2.22222 1.66667 2.22222H11.816C12 2.22222 12.0938 2.44792 11.9618 2.57639L11.2674 3.27083C11.2292 3.30903 11.1736 3.33333 11.1215 3.33333H1.66667C1.36111 3.33333 1.11111 3.58333 1.11111 3.88889V16.1111C1.11111 16.4167 1.36111 16.6667 1.66667 16.6667H13.8889C14.1944 16.6667 14.4444 16.4167 14.4444 16.1111V11.1007C14.4444 11.0451 14.4653 10.9931 14.5069 10.9549ZM19.5729 4.31597L8.72222 15.1667L5.25347 15.5521C4.78819 15.6042 4.39583 15.2118 4.44792 14.7465L4.83333 11.2778L15.684 0.427083C16.2535 -0.142361 17.1771 -0.142361 17.7465 0.427083L19.5729 2.25347C20.1424 2.82292 20.1424 3.74653 19.5729 4.31597ZM16.3229 5.99653L14.0069 3.68056L5.89583 11.7882L5.60764 14.3958L8.21528 14.1076L16.3229 5.99653ZM18.7882 3.03819L16.9618 1.21181C16.8299 1.07986 16.6076 1.07292 16.4722 1.21181L14.7917 2.89236L17.1076 5.20833L18.7882 3.52778C18.9236 3.39583 18.9236 3.17361 18.7882 3.03819Z" fill="#00A1DE"/>
</svg>
