<svg xmlns="http://www.w3.org/2000/svg" width="77.752" height="77.752" viewBox="0 0 77.752 77.752"><defs><style>.a{fill:#e86d68;stroke:#fff;stroke-width:2px;}</style></defs><g transform="translate(1 1)"><path class="a" d="M40.376,2.5A37.876,37.876,0,1,0,78.252,40.376,37.91,37.91,0,0,0,40.376,2.5Zm0,67.539A29.663,29.663,0,1,1,70.039,40.376,29.709,29.709,0,0,1,40.376,70.039Z" transform="translate(-2.5 -2.5)"/><g transform="translate(32.853 18.938)"><path class="a" d="M48.967,50.172a4.084,4.084,0,0,0,4.067-4.067V27.367a4.067,4.067,0,0,0-8.133,0V46.026A4.1,4.1,0,0,0,48.967,50.172Z" transform="translate(-43.943 -23.3)"/><circle class="a" cx="5.024" cy="5.024" r="5.024" transform="translate(0 30.301)"/></g></g></svg>