<svg width="24" height="21" viewBox="0 0 24 21" fill="none" xmlns="http://www.w3.org/2000/svg">
<path d="M23.42 9.2943L12.9094 0.759142C12.6513 0.551956 12.3297 0.438965 11.9981 0.438965C11.6665 0.438965 11.3449 0.551956 11.0867 0.759142L0.579761 9.2943C0.50564 9.35441 0.458502 9.44133 0.448686 9.53598C0.43887 9.63064 0.467178 9.72531 0.5274 9.79922L0.983303 10.3567C1.04347 10.4301 1.13035 10.477 1.22503 10.487C1.31971 10.497 1.41453 10.4694 1.48886 10.4102L3.33323 8.91066V19.8267C3.33323 20.0173 3.40932 20.2001 3.54477 20.3349C3.68021 20.4697 3.86391 20.5454 4.05545 20.5454H9.83323C10.0248 20.5454 10.2085 20.4697 10.3439 20.3349C10.4794 20.2001 10.5555 20.0173 10.5555 19.8267V14.0767L13.4443 14.0902V19.8437C13.4443 20.0344 13.5204 20.2172 13.6559 20.352C13.7913 20.4868 13.975 20.5625 14.1666 20.5625L19.9443 20.5477C20.1359 20.5477 20.3196 20.4719 20.455 20.3372C20.5905 20.2024 20.6666 20.0196 20.6666 19.8289V8.91066L22.5109 10.4102C22.5852 10.4702 22.6805 10.4985 22.7757 10.4887C22.8709 10.4789 22.9583 10.4319 23.0188 10.358L23.4747 9.80057C23.5046 9.76379 23.5269 9.7215 23.5403 9.67613C23.5538 9.63075 23.5581 9.58318 23.553 9.53615C23.5479 9.48911 23.5336 9.44353 23.5107 9.40203C23.4879 9.36053 23.4571 9.32392 23.42 9.2943ZM19.2172 19.1138H19.2217L14.8883 19.1272V13.3696C14.8877 13.1796 14.8118 12.9974 14.6769 12.8628C14.5421 12.7282 14.3593 12.652 14.1684 12.6509L9.83504 12.6387C9.74 12.6384 9.64585 12.6568 9.55796 12.6928C9.47008 12.7288 9.39019 12.7817 9.32289 12.8485C9.25559 12.9152 9.20219 12.9946 9.16575 13.0819C9.12931 13.1693 9.11056 13.2629 9.11056 13.3575V19.1138H4.77768V7.73775L11.9999 1.87231L19.2221 7.73775L19.2172 19.1138Z" fill="#868685"/>
</svg>
