<svg width="22" height="25" viewBox="0 0 22 25" fill="none" xmlns="http://www.w3.org/2000/svg">
<path d="M11 13.2812C10.0948 13.28 9.21776 12.9685 8.51664 12.3993C7.81551 11.83 7.33319 11.0379 7.15098 10.1562H4.79384C5.1867 13.2354 7.79772 15.625 11.0005 15.625C14.2033 15.625 16.8167 13.2354 17.2071 10.1562H14.85C14.6678 11.038 14.1853 11.8303 13.484 12.3996C12.7826 12.9689 11.9053 13.2802 11 13.2812ZM15.4 17.1875C13.9896 17.1875 13.3154 17.9688 11 17.9688C8.6846 17.9688 8.01036 17.1875 6.60196 17.1875C5.73507 17.1872 4.87663 17.3568 4.07565 17.6865C3.27467 18.0162 2.54686 18.4995 1.93379 19.1089C1.32071 19.7183 0.834387 20.4419 0.502583 21.2382C0.170779 22.0345 -3.83933e-08 22.888 0 23.75C0 24.0815 0.132449 24.3995 0.368209 24.6339C0.603969 24.8683 0.923728 25 1.25714 25H20.7429C21.0763 25 21.396 24.8683 21.6318 24.6339C21.8675 24.3995 22 24.0815 22 23.75C22 22.0095 21.3046 20.3403 20.0669 19.1096C18.8292 17.8789 17.1504 17.1875 15.4 17.1875ZM2.50152 22.6562C2.74504 21.7599 3.27854 20.9683 4.01963 20.4035C4.76073 19.8387 5.66822 19.5321 6.60196 19.5312C7.31107 19.5312 8.48179 20.3125 11 20.3125C13.5275 20.3125 14.6879 19.5312 15.4 19.5312C16.3335 19.5323 17.2406 19.8389 17.9814 20.4038C18.7221 20.9686 19.2553 21.7601 19.4985 22.6562H2.50152ZM4.32143 8.59375H17.6786C17.7828 8.59375 17.8827 8.5526 17.9564 8.47934C18.03 8.40608 18.0714 8.30673 18.0714 8.20312V6.64062C18.0714 6.53702 18.03 6.43767 17.9564 6.36441C17.8827 6.29115 17.7828 6.25 17.6786 6.25H17.2857C17.2857 3.98389 15.8847 2.07324 13.9076 1.24902L12.5714 3.90625V0.78125C12.5714 0.57405 12.4886 0.375336 12.3413 0.228823C12.1939 0.08231 11.9941 0 11.7857 0L10.2143 0C10.0059 0 9.80605 0.08231 9.6587 0.228823C9.51135 0.375336 9.42857 0.57405 9.42857 0.78125V3.90625L8.09237 1.24902C6.11531 2.07324 4.71429 3.98389 4.71429 6.25H4.32143C4.21724 6.25 4.11731 6.29115 4.04364 6.36441C3.96996 6.43767 3.92857 6.53702 3.92857 6.64062V8.20312C3.92857 8.30673 3.96996 8.40608 4.04364 8.47934C4.11731 8.5526 4.21724 8.59375 4.32143 8.59375Z" fill="#868685"/>
</svg>
