<svg width="20" height="20" viewBox="0 0 20 20" fill="none" xmlns="http://www.w3.org/2000/svg">
<path d="M8.75 3.75391V5.66016L9.91016 6.82031C9.64453 5.46094 10.0469 4.07422 11.0234 3.09766C11.8164 2.30469 12.8672 1.87891 13.9531 1.87891H14L11.7578 4.11328L12.3477 7.65234L15.8867 8.24219L18.125 6.00391C18.1367 7.10938 17.7109 8.17188 16.9062 8.97656C16.543 9.33984 16.1172 9.61719 15.6641 9.82031C15.7344 9.88281 15.8164 9.93359 15.8828 10L17.082 11.1992C17.4922 10.9531 17.8828 10.6562 18.2305 10.3047C19.7188 8.81641 20.3281 6.62109 19.8203 4.57812C19.7031 4.10156 19.3359 3.72656 18.8672 3.59375C18.3906 3.46094 17.8828 3.59766 17.5391 3.94531L15.2461 6.23438L13.9805 6.02344L13.7695 4.75781L16.0586 2.46875C16.4062 2.12109 16.5391 1.61328 16.4062 1.14062C16.2773 0.667969 15.8984 0.300781 15.4219 0.183594C13.3437 -0.332031 11.207 0.261719 9.69531 1.76953C9.29688 2.16797 8.97266 2.61719 8.70703 3.09375L8.75 3.125V3.75391ZM4.14062 17.7344C3.64062 18.2344 2.76172 18.2344 2.26172 17.7344C2.01172 17.4844 1.87109 17.1484 1.87109 16.7969C1.87109 16.4414 2.00781 16.1094 2.26172 15.8594L7.51172 10.6094L6.1875 9.28516L0.9375 14.5312C0.332031 15.1367 0 15.9414 0 16.7969C0 17.6523 0.332031 18.457 0.9375 19.0625C1.54297 19.668 2.34766 20 3.20312 20C4.05859 20 4.86328 19.668 5.46875 19.0625L9.41016 15.1211C9.03125 14.5039 8.81641 13.8008 8.79688 13.0859L4.14062 17.7344ZM19.5742 15.457L15 10.8828C14.0977 9.98047 12.75 9.80469 11.6641 10.3398L7.5 6.17578V3.75L2.5 0L0 2.5L3.75 7.5H6.17578L10.3398 11.6641C9.80859 12.75 9.98047 14.0977 10.8828 15L15.457 19.5742C16.0273 20.1445 16.9492 20.1445 17.5156 19.5742L19.5742 17.5156C20.1406 16.9453 20.1406 16.0234 19.5742 15.457Z" fill="#868685"/>
</svg>
