<svg width="18" height="17" viewBox="0 0 18 17" fill="none" xmlns="http://www.w3.org/2000/svg">
<path d="M8.41522 0.353309L8.14032 0.615672C7.95815 0.789567 7.95815 1.07152 8.14032 1.24546L15.0795 7.86926L0.466378 7.86926C0.208743 7.86926 -0.000140382 8.06864 -0.000140404 8.31457L-0.000140436 8.68566C-0.000140458 8.93159 0.208743 9.13097 0.466378 9.13097L15.0795 9.13098L8.14032 15.7548C7.95815 15.9287 7.95815 16.2106 8.14032 16.3846L8.41522 16.6469C8.59739 16.8208 8.89278 16.8208 9.07495 16.6469L17.2799 8.81499C17.462 8.6411 17.462 8.35914 17.2799 8.18521L9.07495 0.353271C8.89278 0.179376 8.5974 0.179378 8.41522 0.353309Z" fill="white"/>
</svg>
