<svg xmlns="http://www.w3.org/2000/svg" width="77.852" height="77.852" viewBox="0 0 77.852 77.852"><defs><style>.a{fill:#68e8a8;stroke:#fff;stroke-width:2px;}</style></defs><path class="a" d="M-440-887.074A37.961,37.961,0,0,1-402.074-925a37.96,37.96,0,0,1,37.926,37.926,37.96,37.96,0,0,1-37.926,37.926A37.96,37.96,0,0,1-440-887.074Zm8.224,0a29.748,29.748,0,0,0,29.7,29.7,29.749,29.749,0,0,0,29.7-29.7,29.749,29.749,0,0,0-29.7-29.7A29.748,29.748,0,0,0-431.776-887.074Zm21,14.95-13.593-13.593a3.713,3.713,0,0,1,0-5.252,3.715,3.715,0,0,1,5.252,0l11.036,11.037,22.645-22.644a3.713,3.713,0,0,1,5.252,0,3.713,3.713,0,0,1,0,5.252L-405.6-871.914l-.075-.074a3.7,3.7,0,0,1-2.482.95A3.7,3.7,0,0,1-410.781-872.124Z" transform="translate(441 926)"/></svg>