<svg width="22" height="22" viewBox="0 0 22 22" fill="none" xmlns="http://www.w3.org/2000/svg">
<path d="M11 14.6094C10.3355 14.6094 9.79688 15.148 9.79688 15.8125C9.79688 16.477 10.3355 17.0156 11 17.0156C11.6645 17.0156 12.2031 16.477 12.2031 15.8125C12.2031 15.148 11.6645 14.6094 11 14.6094ZM11.3296 13.5781H10.6421C10.3573 13.5781 10.1264 13.3473 10.1264 13.0625V13.0461C10.1264 10.0236 13.4539 10.3125 13.4539 8.43094C13.4539 7.57088 12.6908 6.70312 10.9858 6.70312C9.73354 6.70312 9.08381 7.11773 8.4416 7.93598C8.27368 8.14997 7.96662 8.19358 7.74344 8.03808L7.17909 7.64491C6.93739 7.47652 6.88432 7.13913 7.06544 6.90684C7.97749 5.73693 9.05962 4.98438 10.9858 4.98438C13.2339 4.98438 15.1727 6.26274 15.1727 8.43094C15.1727 11.3276 11.8452 11.1745 11.8452 13.0461V13.0625C11.8452 13.3473 11.6143 13.5781 11.3296 13.5781ZM11 1.71875C16.097 1.71875 20.2812 5.84697 20.2812 11C20.2812 16.1258 16.13 20.2812 11 20.2812C5.87623 20.2812 1.71875 16.1321 1.71875 11C1.71875 5.878 5.86962 1.71875 11 1.71875ZM11 0.34375C5.11513 0.34375 0.34375 5.11685 0.34375 11C0.34375 16.8866 5.11513 21.6562 11 21.6562C16.8849 21.6562 21.6562 16.8866 21.6562 11C21.6562 5.11685 16.8849 0.34375 11 0.34375Z" fill="#00A1DE"/>
</svg>
