<svg width="36" height="36" viewBox="0 0 58 40" fill="none" xmlns="http://www.w3.org/2000/svg">
<path d="M57.4823 29.1365L47.7428 38.8865C47.304 39.3258 46.5924 39.3258 46.1535 38.8865L36.414 29.1365C35.9752 28.6972 35.9752 27.9849 36.414 27.5455L37.9945 25.9633C38.4368 25.5205 39.1551 25.5244 39.5925 25.9721L44.7006 31.1999V10.25H25.5985C25.451 10.25 25.3048 10.2209 25.1685 10.1644C25.0321 10.1078 24.9083 10.025 24.8039 9.92048L22.5564 7.67048C21.8484 6.96173 22.3498 5.75001 23.351 5.75001H46.9482C48.1895 5.75001 49.1958 6.75736 49.1958 8.00001V31.1999L54.3038 25.9722C54.7412 25.5245 55.4595 25.5206 55.9018 25.9634L57.4823 27.5456C57.9212 27.9849 57.9212 28.6972 57.4823 29.1365ZM33.1314 30.0795C32.9206 29.8686 32.6348 29.75 32.3367 29.75H13.2347V8.80017L18.3427 14.0279C18.7802 14.4755 19.4984 14.4795 19.9408 14.0367L21.5213 12.4545C21.9601 12.0151 21.9601 11.3028 21.5213 10.8634L11.7818 1.11342C11.343 0.674107 10.6314 0.674107 10.1925 1.11342L0.45303 10.8634C0.014192 11.3027 0.014192 12.015 0.45303 12.4545L2.03354 14.0367C2.47584 14.4795 3.19413 14.4755 3.63156 14.0279L8.73953 8.80017V32C8.73953 33.2427 9.74579 34.25 10.9871 34.25H34.5843C35.5855 34.25 36.0869 33.0382 35.3789 32.3295L33.1314 30.0795Z" fill="white"/>
</svg>
