<svg width="36" height="36" viewBox="0 0 41 47" fill="none" xmlns="http://www.w3.org/2000/svg">
<path d="M36.6071 5.875H32.2143V1.10156C32.2143 0.495703 31.7201 0 31.1161 0H30.3839C29.7799 0 29.2857 0.495703 29.2857 1.10156V5.875H11.7143V1.10156C11.7143 0.495703 11.2201 0 10.6161 0H9.88393C9.27991 0 8.78571 0.495703 8.78571 1.10156V5.875H4.39286C1.96763 5.875 0 7.84863 0 10.2812V42.5938C0 45.0264 1.96763 47 4.39286 47H36.6071C39.0324 47 41 45.0264 41 42.5938V10.2812C41 7.84863 39.0324 5.875 36.6071 5.875ZM4.39286 8.8125H36.6071C37.4125 8.8125 38.0714 9.47344 38.0714 10.2812V14.6875H2.92857V10.2812C2.92857 9.47344 3.5875 8.8125 4.39286 8.8125ZM36.6071 44.0625H4.39286C3.5875 44.0625 2.92857 43.4016 2.92857 42.5938V17.625H38.0714V42.5938C38.0714 43.4016 37.4125 44.0625 36.6071 44.0625ZM13.5446 29.375H9.88393C9.27991 29.375 8.78571 28.8793 8.78571 28.2734V24.6016C8.78571 23.9957 9.27991 23.5 9.88393 23.5H13.5446C14.1487 23.5 14.6429 23.9957 14.6429 24.6016V28.2734C14.6429 28.8793 14.1487 29.375 13.5446 29.375ZM22.3304 29.375H18.6696C18.0656 29.375 17.5714 28.8793 17.5714 28.2734V24.6016C17.5714 23.9957 18.0656 23.5 18.6696 23.5H22.3304C22.9344 23.5 23.4286 23.9957 23.4286 24.6016V28.2734C23.4286 28.8793 22.9344 29.375 22.3304 29.375ZM31.1161 29.375H27.4554C26.8513 29.375 26.3571 28.8793 26.3571 28.2734V24.6016C26.3571 23.9957 26.8513 23.5 27.4554 23.5H31.1161C31.7201 23.5 32.2143 23.9957 32.2143 24.6016V28.2734C32.2143 28.8793 31.7201 29.375 31.1161 29.375ZM22.3304 38.1875H18.6696C18.0656 38.1875 17.5714 37.6918 17.5714 37.0859V33.4141C17.5714 32.8082 18.0656 32.3125 18.6696 32.3125H22.3304C22.9344 32.3125 23.4286 32.8082 23.4286 33.4141V37.0859C23.4286 37.6918 22.9344 38.1875 22.3304 38.1875ZM13.5446 38.1875H9.88393C9.27991 38.1875 8.78571 37.6918 8.78571 37.0859V33.4141C8.78571 32.8082 9.27991 32.3125 9.88393 32.3125H13.5446C14.1487 32.3125 14.6429 32.8082 14.6429 33.4141V37.0859C14.6429 37.6918 14.1487 38.1875 13.5446 38.1875ZM31.1161 38.1875H27.4554C26.8513 38.1875 26.3571 37.6918 26.3571 37.0859V33.4141C26.3571 32.8082 26.8513 32.3125 27.4554 32.3125H31.1161C31.7201 32.3125 32.2143 32.8082 32.2143 33.4141V37.0859C32.2143 37.6918 31.7201 38.1875 31.1161 38.1875Z" fill="white"/>
</svg>
