<svg width="36" height="36" viewBox="0 0 48 36" fill="none" xmlns="http://www.w3.org/2000/svg">
<path d="M11.3259 17.25C8.89219 17.25 7.12594 18.825 7.12594 20.9953C7.12594 23.1656 8.89219 24.7406 11.3259 24.7406L12.2766 24.75C15.9525 24.75 16.5009 22.8656 16.5009 21.7425C16.5 19.4288 13.5853 17.25 11.3259 17.25ZM12.2766 22.5C11.9475 22.5 11.6184 22.4906 11.3259 22.4906C10.1559 22.4906 9.37594 21.8925 9.37594 20.9953C9.37594 20.0981 10.1559 19.5 11.3259 19.5C12.4959 19.5 14.2509 20.8462 14.2509 21.7434C14.2509 22.4156 13.2628 22.5 12.2766 22.5ZM36.6741 17.25C34.4147 17.25 31.5 19.4287 31.5 21.7434C31.5 22.8666 32.0484 24.7509 35.7244 24.7509L36.675 24.7416C39.1087 24.7416 40.875 23.1666 40.875 20.9963C40.8741 18.825 39.1078 17.25 36.6741 17.25ZM36.6741 22.4906C36.3816 22.4906 36.0525 22.5 35.7234 22.5C34.7362 22.5 33.7491 22.4156 33.7491 21.7434C33.7491 20.8462 35.5041 19.5 36.6741 19.5C37.8441 19.5 38.6241 20.0981 38.6241 20.9953C38.6241 21.8925 37.8441 22.4906 36.6741 22.4906ZM47.4366 9.2775C46.7484 8.16375 45.5559 7.49906 44.2462 7.49906H39.5906L38.8341 5.17781C37.8281 2.08969 34.95 0 31.7034 0H16.2966C13.0491 0 10.1719 2.08969 9.16594 5.17688L8.40937 7.49812H3.75375C2.44406 7.49812 1.25156 8.16281 0.563437 9.27656C-0.124688 10.3903 -0.186563 11.7534 0.399374 12.9244L0.941249 14.0128C1.3125 14.7516 1.87125 15.3338 2.535 15.7519C1.88719 16.8525 1.50094 18.1256 1.50094 19.4991V31.5C1.50094 33.9816 3.51937 36 6.00094 36H7.50094C9.9825 36 12.0009 33.9816 12.0009 31.5V30H36V31.5C36 33.9816 38.0184 36 40.5 36H42C44.4816 36 46.5 33.9816 46.5 31.5V19.4991C46.5 18.1247 46.1137 16.8525 45.4659 15.7509C46.1306 15.3328 46.6884 14.7497 47.0597 14.01L47.6016 12.9263C48.1866 11.7544 48.1247 10.3903 47.4366 9.2775ZM12.0187 6.10687C12.6244 4.24875 14.3437 3 16.2975 3H31.7034C33.6572 3 35.3766 4.24875 35.9822 6.10594L37.9012 11.9981H10.0997L12.0187 6.10687ZM3.62531 12.6713L3.08344 11.5847C2.91375 11.2481 3.05156 10.9622 3.11531 10.8553C3.19687 10.7222 3.39094 10.4991 3.75375 10.4991H7.4325L6.82781 12.3572C6.05695 12.5928 5.3287 12.9501 4.67062 13.4156C4.22906 13.3219 3.8325 13.0856 3.62531 12.6713ZM9.00094 31.5C9.00094 32.3278 8.32687 33 7.50094 33H6.00094C5.175 33 4.50094 32.3278 4.50094 31.5V30H9.00094V31.5ZM43.4991 31.5C43.4991 32.3278 42.825 33 41.9991 33H40.4991C39.6731 33 38.9991 32.3278 38.9991 31.5V30H43.4991V31.5ZM43.4991 23.9991V26.9991H4.50094V19.4991C4.50094 17.0175 6.51937 14.9991 9.00094 14.9991H38.9991C41.4806 14.9991 43.4991 17.0175 43.4991 19.4991V23.9991ZM44.9166 11.5856L44.3747 12.6684C44.1675 13.0847 43.7709 13.3219 43.3294 13.4156C42.6787 12.9563 41.9522 12.5944 41.1722 12.3572L40.5675 10.4991H44.2462C44.6091 10.4991 44.8031 10.7222 44.8847 10.8553C44.9494 10.9622 45.0872 11.2472 44.9166 11.5856Z" fill="white"/>
</svg>
