<svg width="36" height="36" viewBox="0 0 38 43" fill="none" xmlns="http://www.w3.org/2000/svg">
<path d="M18.9328 13.4375C16.6594 13.4375 14.4369 14.1074 12.5466 15.3624C10.6563 16.6175 9.18293 18.4013 8.3129 20.4884C7.44288 22.5755 7.21524 24.872 7.65877 27.0877C8.10231 29.3033 9.19709 31.3385 10.8047 32.9359C12.4123 34.5332 14.4605 35.6211 16.6903 36.0618C18.9201 36.5025 21.2313 36.2763 23.3318 35.4118C25.4322 34.5473 27.2274 33.0833 28.4905 31.205C29.7536 29.3267 30.4278 27.1184 30.4278 24.8594C30.4278 21.8301 29.2167 18.9249 27.061 16.7829C24.9053 14.6409 21.9815 13.4375 18.9328 13.4375ZM18.9328 32.25C15.5393 32.25 12.7011 29.9673 11.8119 26.875H14.8758C15.2345 26.875 15.5784 26.7334 15.8321 26.4814C16.0857 26.2294 16.2281 25.8876 16.2281 25.5312V24.1875C16.2281 23.8311 16.0857 23.4893 15.8321 23.2373C15.5784 22.9853 15.2345 22.8438 14.8758 22.8438H11.8119C12.7011 19.7514 15.5393 17.4688 18.9328 17.4688C20.9055 17.4688 22.7973 18.2474 24.1922 19.6334C25.5871 21.0194 26.3707 22.8993 26.3707 24.8594C26.3707 26.8195 25.5871 28.6993 24.1922 30.0853C22.7973 31.4713 20.9055 32.25 18.9328 32.25ZM10.8188 8.73438C10.8188 8.33572 10.6998 7.94602 10.4769 7.61455C10.254 7.28309 9.93719 7.02474 9.56653 6.87218C9.19586 6.71962 8.788 6.67971 8.3945 6.75748C8.00101 6.83525 7.63956 7.02722 7.35587 7.30911C7.07217 7.591 6.87898 7.95015 6.8007 8.34115C6.72243 8.73214 6.76261 9.13741 6.91614 9.50572C7.06967 9.87403 7.32967 10.1888 7.66326 10.4103C7.99685 10.6318 8.38904 10.75 8.79025 10.75C9.32824 10.75 9.8442 10.5376 10.2246 10.1596C10.605 9.78163 10.8188 9.26895 10.8188 8.73438ZM15.552 10.75C15.9532 10.75 16.3454 10.6318 16.679 10.4103C17.0125 10.1888 17.2725 9.87403 17.4261 9.50572C17.5796 9.13741 17.6198 8.73214 17.5415 8.34115C17.4632 7.95015 17.27 7.591 16.9864 7.30911C16.7027 7.02722 16.3412 6.83525 15.9477 6.75748C15.5542 6.67971 15.1464 6.71962 14.7757 6.87218C14.405 7.02474 14.0882 7.28309 13.8653 7.61455C13.6424 7.94602 13.5235 8.33572 13.5235 8.73438C13.5235 9.26895 13.7372 9.78163 14.1176 10.1596C14.498 10.5376 15.014 10.75 15.552 10.75ZM32.4563 0H5.40938C3.97472 0 2.59883 0.566293 1.58437 1.5743C0.569915 2.58231 0 3.94946 0 5.375L0 40.3125C0 41.0253 0.284958 41.7088 0.792186 42.2128C1.29941 42.7169 1.98736 43 2.70469 43H35.161C35.8783 43 36.5663 42.7169 37.0735 42.2128C37.5807 41.7088 37.8657 41.0253 37.8657 40.3125V5.375C37.8657 3.94946 37.2958 2.58231 36.2813 1.5743C35.2668 0.566293 33.8909 0 32.4563 0V0ZM33.8086 38.9688H4.05704V5.375C4.05704 5.01862 4.19952 4.67683 4.45313 4.42483C4.70674 4.17282 5.05072 4.03125 5.40938 4.03125H32.4563C32.815 4.03125 33.1589 4.17282 33.4125 4.42483C33.6662 4.67683 33.8086 5.01862 33.8086 5.375V38.9688Z" fill="white"/>
</svg>
