<svg width="36" height="36" viewBox="0 0 43 43" fill="none" xmlns="http://www.w3.org/2000/svg">
<path d="M18.8125 8.0709V12.1693L21.3068 14.6637C20.7357 11.741 21.6008 8.75957 23.7004 6.65996C25.4053 4.95508 27.6645 4.03965 29.9992 4.03965H30.1L25.2793 8.84355L26.5475 16.4525L34.1564 17.7207L38.9688 12.9084C38.9939 15.2852 38.0785 17.5695 36.3484 19.2996C35.5674 20.0807 34.652 20.677 33.6777 21.1137C33.8289 21.248 34.0053 21.3572 34.148 21.5L36.7264 24.0783C37.6082 23.5492 38.448 22.9109 39.1955 22.1551C42.3953 18.9553 43.7055 14.2354 42.6137 9.84297C42.3617 8.81836 41.5723 8.01211 40.5645 7.72656C39.5398 7.44102 38.448 7.73496 37.709 8.48242L32.7791 13.4039L30.058 12.9504L29.6045 10.2293L34.526 5.30781C35.2734 4.56035 35.559 3.46855 35.2734 2.45234C34.9963 1.43613 34.1816 0.64668 33.157 0.394727C28.6891 -0.713867 24.0951 0.562695 20.8449 3.80449C19.9883 4.66113 19.2912 5.62695 18.7201 6.65156L18.8125 6.71875V8.0709ZM8.90234 38.1289C7.82734 39.2039 5.9377 39.2039 4.8627 38.1289C4.3252 37.5914 4.02285 36.8691 4.02285 36.1133C4.02285 35.349 4.3168 34.6352 4.8627 34.0977L16.1502 22.8102L13.3031 19.9631L2.01562 31.2422C0.713867 32.5439 0 34.274 0 36.1133C0 37.9525 0.713867 39.6826 2.01562 40.9844C3.31738 42.2861 5.04746 43 6.88672 43C8.72598 43 10.4561 42.2861 11.7578 40.9844L20.2318 32.5104C19.4172 31.1834 18.9553 29.6717 18.9133 28.1348L8.90234 38.1289ZM42.0846 33.2326L32.25 23.398C30.31 21.458 27.4125 21.0801 25.0777 22.2307L16.125 13.2779V8.0625L5.375 0L0 5.375L8.0625 16.125H13.2779L22.2307 25.0777C21.0885 27.4125 21.458 30.31 23.398 32.25L33.2326 42.0846C34.4588 43.3107 36.4408 43.3107 37.6586 42.0846L42.0846 37.6586C43.3023 36.4324 43.3023 34.4504 42.0846 33.2326Z" fill="white"/>
</svg>
