<svg width="36" height="36" viewBox="0 0 57 45" fill="none" xmlns="http://www.w3.org/2000/svg">
<path d="M12.1207 10.8169C12.4361 10.584 12.6987 10.2881 12.8918 9.94821C13.0849 9.60836 13.204 9.23212 13.2416 8.84374L13.4329 6.91454L14.5122 8.52821C14.7303 8.85298 15.0142 9.12905 15.3458 9.33879C15.6773 9.54854 16.0493 9.68735 16.438 9.74638C17.2349 9.85888 18.0264 9.64354 18.6489 9.14081L23.2672 5.36679C24.1748 4.62675 24.3049 3.29696 23.5576 2.39784C22.8077 1.49872 21.4716 1.37304 20.5667 2.10956L17.1747 4.88251L14.7424 1.25175C14.0863 0.265615 12.8636 -0.203721 11.7099 0.0854393C10.5535 0.37372 9.70352 1.35722 9.59284 2.52704L9.16696 6.86972L4.85852 6.00751C3.69951 5.78251 2.498 6.29755 1.88706 7.31181C1.27258 8.32518 1.37264 9.61718 2.1279 10.5251L4.91961 13.8922L1.2593 16.3074C0.255241 16.9719 -0.20429 18.1514 0.0887829 19.3133C0.379199 20.4752 1.34519 21.3014 2.54847 21.42L6.92331 21.8401L6.05472 26.1169C5.82274 27.2577 6.56649 28.3704 7.71753 28.6015C7.86097 28.6288 8.00264 28.6429 8.14076 28.6429C9.13154 28.6429 10.017 27.952 10.2215 26.9492L11.4026 21.1247C11.5576 20.3513 11.3752 19.5453 10.905 18.9125C10.4322 18.2797 9.70706 17.8719 8.91284 17.7936L6.97024 17.6073L8.59144 16.5377C9.2555 16.1026 9.70352 15.4048 9.82305 14.6234C9.88045 14.2355 9.85569 13.8399 9.75034 13.4621C9.64499 13.0842 9.46137 12.7322 9.21123 12.4288L7.97165 10.9329L9.88592 11.3161C10.6545 11.4708 11.4788 11.288 12.1207 10.8169ZM47.3479 27.3052C45.7063 26.8683 42.5843 28.6508 42.1461 30.2767C41.7078 31.9027 44.2436 32.2868 45.8852 32.7227C47.5267 33.1596 48.9142 32.3677 49.3534 30.7417C49.7925 29.1157 48.9894 27.742 47.3479 27.3052ZM54.6517 24.2677L53.5555 15.3195C53.2067 12.471 51.149 10.119 48.3573 9.37636L33.6098 5.45468C30.818 4.712 27.851 5.72802 26.1147 8.02196L20.6588 15.2272C18.1318 16.1334 16.0732 18.2015 15.325 20.9726L12.2084 32.5188C11.9047 33.6438 12.5776 34.8005 13.7109 35.1019L15.0789 35.4658C16.2122 35.7673 17.3774 35.0993 17.6811 33.9743L18.231 31.937L48.336 39.9447L47.7862 41.982C47.4825 43.107 48.1554 44.2637 49.2887 44.5651L50.6576 44.929C51.7909 45.2305 52.9561 44.5625 53.2598 43.4375L55.6434 34.608L56.3765 31.8913C57.1246 29.1192 56.3836 26.3067 54.6517 24.2677ZM29.5121 10.5558C30.2106 9.633 31.3874 9.23046 32.5101 9.52929L47.2576 13.4518C48.3803 13.7507 49.1966 14.6832 49.3365 15.8284L50.0272 21.4657L26.074 15.0945L29.5121 10.5558ZM52.2717 30.7988L51.172 34.8743C50.9701 35.6231 50.1918 36.0696 49.4366 35.8683L19.3315 27.8615C18.5772 27.6611 18.1274 26.8886 18.3301 26.1389L19.4298 22.0634C20.0363 19.8169 22.3712 18.4783 24.6352 19.0804L49.2666 25.6317C51.5297 26.2338 52.8782 28.5515 52.2717 30.7988ZM25.4533 21.4815C23.8117 21.0447 22.4243 21.8375 21.9851 23.4626C21.546 25.0877 22.349 26.4623 23.9906 26.8991C25.633 27.3359 28.0228 28.2614 28.4611 26.6363C28.9002 25.0112 27.0958 21.9183 25.4533 21.4815Z" fill="white"/>
</svg>
