<svg width="36" height="36" viewBox="0 0 43 43" fill="none" xmlns="http://www.w3.org/2000/svg">
<path d="M21.5 7.05469C13.5223 7.05469 7.05469 13.5223 7.05469 21.5C7.05469 29.4777 13.5223 35.9453 21.5 35.9453C29.4777 35.9453 35.9453 29.4777 35.9453 21.5C35.9453 13.5223 29.4777 7.05469 21.5 7.05469ZM21.5 11.0859C23.0604 11.0859 24.5276 11.4555 25.858 12.0728L23.6189 15.155C22.9496 14.9316 22.2458 14.7812 21.5008 14.7812C20.7559 14.7812 20.0521 14.9316 19.3828 15.155L17.1437 12.0728C18.4724 11.4555 19.9396 11.0859 21.5 11.0859ZM11.2094 22.7228C11.1607 22.3163 11.0859 21.9182 11.0859 21.5C11.0859 18.7722 12.1635 16.3056 13.886 14.447L16.1158 17.5166C15.2877 18.6336 14.7812 20.0026 14.7812 21.5C14.7812 21.521 14.7871 21.5395 14.7871 21.5605L11.2094 22.7228ZM19.4844 31.71C16.45 31.112 13.9221 29.1728 12.4532 26.5575L16.0402 25.3918C16.8767 26.5626 18.0818 27.4335 19.4844 27.8769V31.71ZM21.5 24.1875C20.016 24.1875 18.8125 22.984 18.8125 21.5C18.8125 20.016 20.016 18.8125 21.5 18.8125C22.984 18.8125 24.1875 20.016 24.1875 21.5C24.1875 22.984 22.984 24.1875 21.5 24.1875ZM23.5156 31.71V27.8769C24.9182 27.4335 26.1225 26.5634 26.9598 25.3918L30.5468 26.5575C29.0779 29.1737 26.55 31.112 23.5156 31.71ZM28.2129 21.5605C28.2129 21.5395 28.2188 21.521 28.2188 21.5C28.2188 20.0026 27.7123 18.6336 26.8842 17.5166L29.114 14.447C30.8365 16.3056 31.9141 18.7722 31.9141 21.5C31.9141 21.9191 31.8385 22.3172 31.7906 22.7228L28.2129 21.5605ZM21.5 0C9.62629 0 0 9.62629 0 21.5C0 33.3737 9.62629 43 21.5 43C33.3737 43 43 33.3737 43 21.5C43 9.62629 33.3737 0 21.5 0ZM21.5 38.9688C11.8678 38.9688 4.03125 31.1322 4.03125 21.5C4.03125 11.8678 11.8678 4.03125 21.5 4.03125C31.1322 4.03125 38.9688 11.8678 38.9688 21.5C38.9688 31.1322 31.1322 38.9688 21.5 38.9688Z" fill="white"/>
</svg>
