<svg width="42" height="42" viewBox="0 0 38 44" fill="none" xmlns="http://www.w3.org/2000/svg">
<path d="M27.1429 30.25H26.7442C25.7136 30.25 24.7085 30.4992 23.733 30.8344C20.6628 31.8897 17.3347 31.8897 14.2644 30.8344C13.2898 30.4992 12.2881 30.2517 11.2592 30.2517H10.8571C7.97794 30.2517 5.21664 31.4104 3.18058 33.4729C1.14452 35.5355 0.000449875 38.3329 0 41.25C0 41.9793 0.285969 42.6788 0.794996 43.1945C1.30402 43.7103 1.99441 44 2.71429 44H35.2857C36.0056 44 36.696 43.7103 37.205 43.1945C37.714 42.6788 38 41.9793 38 41.25C38 38.3326 36.8561 35.5347 34.82 33.4718C32.7839 31.4089 30.0224 30.25 27.1429 30.25ZM4.20799 39.875C4.52289 38.3233 5.35615 36.929 6.56733 35.9272C7.77851 34.9253 9.29356 34.3771 10.8571 34.375H11.2592C11.6935 34.375 12.2338 34.491 12.9556 34.7394C16.8728 36.0851 21.1187 36.0851 25.0359 34.7394C25.7654 34.4893 26.3082 34.3724 26.7416 34.3724H27.1429C28.7064 34.3746 30.2215 34.9227 31.4327 35.9246C32.6438 36.9265 33.4771 38.3207 33.792 39.8724L4.20799 39.875ZM4.69317 19.25C5.21794 19.2495 5.72111 19.0382 6.09226 18.6623C6.46341 18.2864 6.67223 17.7768 6.6729 17.2451V16.5C6.6729 9.61297 12.2024 4.0107 19 4.0107C25.7976 4.0107 31.3271 9.61297 31.3271 16.5V17.5888C31.3253 19.1532 30.7111 20.6529 29.6194 21.7591C28.5276 22.8652 27.0473 23.4875 25.5033 23.4893H23.51C23.3532 22.7444 22.949 22.0765 22.3649 21.597C21.7808 21.1175 21.0521 20.8554 20.3003 20.8545H17.6997C17.2646 20.8474 16.8324 20.9281 16.4284 21.0919C16.0243 21.2557 15.6565 21.4993 15.3463 21.8085C15.0361 22.1178 14.7898 22.4865 14.6216 22.8932C14.4535 23.2998 14.3669 23.7363 14.3669 24.1772C14.3669 24.6181 14.4535 25.0546 14.6216 25.4613C14.7898 25.868 15.0361 26.2367 15.3463 26.5459C15.6565 26.8552 16.0243 27.0988 16.4284 27.2626C16.8324 27.4264 17.2646 27.5071 17.6997 27.5H25.5033C28.0968 27.497 30.5833 26.4519 32.4173 24.5938C34.2512 22.7358 35.2828 20.2165 35.2857 17.5888V16.5C35.2857 7.4018 27.98 0 19 0C10.02 0 2.71429 7.4018 2.71429 16.5V17.2451C2.71496 17.7766 2.92366 18.2862 3.29463 18.662C3.6656 19.0379 4.16854 19.2493 4.69317 19.25ZM19 11C20.4393 11.0016 21.8191 11.5816 22.8368 12.6127C23.8546 13.6438 24.427 15.0418 24.4286 16.5C24.4229 17.4595 24.1666 18.4003 23.6855 19.2268C24.2793 19.6445 24.823 20.1334 25.2369 20.7393H25.5033C26.5796 20.7393 27.4838 20.148 28.0428 19.3033C28.3125 18.4104 28.5 17.4823 28.5 16.5C28.5 13.9473 27.4991 11.4991 25.7175 9.6941C23.9359 7.88906 21.5196 6.875 19 6.875C16.4804 6.875 14.0641 7.88906 12.2825 9.6941C10.5009 11.4991 9.5 13.9473 9.5 16.5C9.5 18.9234 10.4144 21.1114 11.875 22.8035C12.2122 21.3367 13.0749 20.0489 14.2958 19.1898C13.8275 18.3723 13.5778 17.4452 13.5714 16.5C13.573 15.0418 14.1454 13.6438 15.1632 12.6127C16.1809 11.5816 17.5607 11.0016 19 11Z" fill="white"/>
</svg>
