<svg width="42" height="42" viewBox="0 0 40 42" fill="none" xmlns="http://www.w3.org/2000/svg">
<path d="M38.2487 23.5175C38.9681 22.2994 39.375 21 39.375 19.4291C39.375 15.8185 36.322 12.4089 32.3351 12.4089H29.3426C29.7462 11.358 30.0686 10.1013 30.0686 8.59113C30.0686 2.61975 26.9768 0 22.2534 0C17.1997 0 17.488 7.78747 16.3669 8.90859C14.5009 10.7746 12.2969 14.3593 10.7264 15.75H2.625C1.17526 15.75 0 16.9253 0 18.375V38.0625C0 39.5122 1.17526 40.6875 2.625 40.6875H7.875C9.09669 40.6875 10.1233 39.8529 10.4162 38.7229C14.0673 38.805 16.5734 41.9992 25.0015 41.9992C25.5938 41.9992 26.25 42 26.8242 42C33.1502 42 36.0106 38.7661 36.0888 34.18C37.1814 32.6685 37.754 30.6426 37.5112 28.6847C38.3196 27.171 38.6321 25.3753 38.2487 23.5175ZM33.1833 27.9333C34.2136 29.6666 33.2866 31.9864 32.0398 32.6558C32.6714 36.6573 30.5954 38.0617 27.6823 38.0617H24.5798C18.7032 38.0617 14.8978 34.9593 10.5 34.9593V19.6875H11.3958C13.7222 19.6875 16.9723 13.8723 19.151 11.6927C21.4774 9.36633 20.7022 5.48871 22.2534 3.9375C26.1311 3.9375 26.1311 6.64289 26.1311 8.59113C26.1311 11.8043 23.8046 13.2439 23.8046 16.3464H32.3351C34.0668 16.3464 35.4301 17.8976 35.4375 19.4488C35.4449 20.9992 34.3859 22.5504 33.6107 22.5504C34.7172 23.7444 34.9536 26.2612 33.1833 27.9333ZM7.21875 35.4375C7.21875 36.5248 6.33732 37.4062 5.25 37.4062C4.16268 37.4062 3.28125 36.5248 3.28125 35.4375C3.28125 34.3502 4.16268 33.4688 5.25 33.4688C6.33732 33.4688 7.21875 34.3502 7.21875 35.4375Z" fill="white"/>
</svg>
