<svg width="42" height="42" viewBox="0 0 52 42" fill="none" xmlns="http://www.w3.org/2000/svg">
<path d="M12.025 15.75H8.775C8.51641 15.75 8.26842 15.8537 8.08557 16.0383C7.90272 16.2229 7.8 16.4733 7.8 16.7344V20.0156C7.8 20.2767 7.90272 20.5271 8.08557 20.7117C8.26842 20.8963 8.51641 21 8.775 21H12.025C12.2836 21 12.5316 20.8963 12.7144 20.7117C12.8973 20.5271 13 20.2767 13 20.0156V16.7344C13 16.4733 12.8973 16.2229 12.7144 16.0383C12.5316 15.8537 12.2836 15.75 12.025 15.75ZM12.025 23.625H8.775C8.51641 23.625 8.26842 23.7287 8.08557 23.9133C7.90272 24.0979 7.8 24.3483 7.8 24.6094V27.8906C7.8 28.1517 7.90272 28.4021 8.08557 28.5867C8.26842 28.7713 8.51641 28.875 8.775 28.875H12.025C12.2836 28.875 12.5316 28.7713 12.7144 28.5867C12.8973 28.4021 13 28.1517 13 27.8906V24.6094C13 24.3483 12.8973 24.0979 12.7144 23.9133C12.5316 23.7287 12.2836 23.625 12.025 23.625ZM12.025 7.875H8.775C8.51641 7.875 8.26842 7.97871 8.08557 8.16332C7.90272 8.34792 7.8 8.5983 7.8 8.85938V12.1406C7.8 12.4017 7.90272 12.6521 8.08557 12.8367C8.26842 13.0213 8.51641 13.125 8.775 13.125H12.025C12.2836 13.125 12.5316 13.0213 12.7144 12.8367C12.8973 12.6521 13 12.4017 13 12.1406V8.85938C13 8.5983 12.8973 8.34792 12.7144 8.16332C12.5316 7.97871 12.2836 7.875 12.025 7.875ZM24.7 14.449C25.854 13.4981 27.1779 12.7794 28.6 12.3318V2.625C28.6 1.92881 28.3261 1.26113 27.8385 0.768845C27.3509 0.276562 26.6896 0 26 0L2.6 0C1.91044 0 1.24912 0.276562 0.761522 0.768845C0.273928 1.26113 0 1.92881 0 2.625L0 35.4375C0 35.7856 0.136964 36.1194 0.380761 36.3656C0.624558 36.6117 0.955218 36.75 1.3 36.75H2.6C2.94478 36.75 3.27544 36.6117 3.51924 36.3656C3.76304 36.1194 3.9 35.7856 3.9 35.4375V3.9375H24.7V14.449ZM16.575 7.875C16.3164 7.875 16.0684 7.97871 15.8856 8.16332C15.7027 8.34792 15.6 8.5983 15.6 8.85938V12.1406C15.6 12.4017 15.7027 12.6521 15.8856 12.8367C16.0684 13.0213 16.3164 13.125 16.575 13.125H19.825C20.0836 13.125 20.3316 13.0213 20.5144 12.8367C20.6973 12.6521 20.8 12.4017 20.8 12.1406V8.85938C20.8 8.5983 20.6973 8.34792 20.5144 8.16332C20.3316 7.97871 20.0836 7.875 19.825 7.875H16.575ZM42.9 28.2188C42.5143 28.2188 42.1373 28.3342 41.8166 28.5505C41.496 28.7669 41.246 29.0744 41.0984 29.4341C40.9508 29.7938 40.9122 30.1897 40.9875 30.5716C41.0627 30.9535 41.2484 31.3043 41.5211 31.5796C41.7939 31.8549 42.1413 32.0425 42.5196 32.1184C42.8978 32.1944 43.2899 32.1554 43.6462 32.0064C44.0025 31.8574 44.3071 31.605 44.5214 31.2813C44.7356 30.9575 44.85 30.5769 44.85 30.1875C44.85 29.6654 44.6446 29.1646 44.2789 28.7954C43.9132 28.4262 43.4172 28.2188 42.9 28.2188ZM47.6751 22.6898L46.5376 20.0058C45.8371 18.3519 44.6706 16.9424 43.1832 15.9524C41.6957 14.9624 39.9528 14.4356 38.1712 14.4375H32.0288C30.2476 14.4361 28.5052 14.9631 27.0183 15.9531C25.5313 16.943 24.3652 18.3523 23.6649 20.0058L22.5274 22.6898C21.2625 23.1446 20.1678 23.983 19.3931 25.0903C18.6185 26.1975 18.2018 27.5194 18.2 28.875V31.5C18.203 32.5148 18.44 33.515 18.8923 34.4212C19.3446 35.3275 19.9997 36.115 20.8057 36.7213C20.8057 36.7311 20.8 36.7402 20.8 36.75V39.375C20.8 40.0712 21.0739 40.7389 21.5615 41.2312C22.0491 41.7234 22.7104 42 23.4 42H24.7C25.3896 42 26.0509 41.7234 26.5385 41.2312C27.0261 40.7389 27.3 40.0712 27.3 39.375V38.0625H42.9V39.375C42.9 40.0712 43.1739 40.7389 43.6615 41.2312C44.1491 41.7234 44.8104 42 45.5 42H46.8C47.4896 42 48.1509 41.7234 48.6385 41.2312C49.1261 40.7389 49.4 40.0712 49.4 39.375V36.75C49.4 36.7402 49.3943 36.7311 49.3943 36.7213C50.2003 36.115 50.8554 35.3275 51.3077 34.4212C51.76 33.515 51.997 32.5148 52 31.5V28.875C51.9983 27.5197 51.5819 26.1981 50.8077 25.0909C50.0335 23.9838 48.9394 23.1452 47.6751 22.6898ZM48.1 31.5C48.1 32.1962 47.8261 32.8639 47.3385 33.3562C46.8509 33.8484 46.1896 34.125 45.5 34.125H24.7C24.0104 34.125 23.3491 33.8484 22.8615 33.3562C22.3739 32.8639 22.1 32.1962 22.1 31.5V28.875C22.1 28.1788 22.3739 27.5111 22.8615 27.0188C23.3491 26.5266 24.0104 26.25 24.7 26.25H25.2574L27.2496 21.557C27.6505 20.6127 28.3169 19.8078 29.1664 19.2422C30.0159 18.6766 31.0112 18.3751 32.0288 18.375H38.1712C39.1888 18.3751 40.1841 18.6766 41.0336 19.2422C41.8831 19.8078 42.5495 20.6127 42.9504 21.557L44.9426 26.25H45.5C46.1896 26.25 46.8509 26.5266 47.3385 27.0188C47.8261 27.5111 48.1 28.1788 48.1 28.875V31.5ZM20.8 20.0156V16.7344C20.8 16.4733 20.6973 16.2229 20.5144 16.0383C20.3316 15.8537 20.0836 15.75 19.825 15.75H16.575C16.3164 15.75 16.0684 15.8537 15.8856 16.0383C15.7027 16.2229 15.6 16.4733 15.6 16.7344V20.0156C15.6 20.2767 15.7027 20.5271 15.8856 20.7117C16.0684 20.8963 16.3164 21 16.575 21H19.825C20.0836 21 20.3316 20.8963 20.5144 20.7117C20.6973 20.5271 20.8 20.2767 20.8 20.0156ZM27.3 28.2188C26.9143 28.2188 26.5373 28.3342 26.2166 28.5505C25.896 28.7669 25.646 29.0744 25.4984 29.4341C25.3508 29.7938 25.3122 30.1897 25.3875 30.5716C25.4627 30.9535 25.6484 31.3043 25.9211 31.5796C26.1939 31.8549 26.5413 32.0425 26.9196 32.1184C27.2978 32.1944 27.6899 32.1554 28.0462 32.0064C28.4025 31.8574 28.7071 31.605 28.9214 31.2813C29.1356 30.9575 29.25 30.5769 29.25 30.1875C29.25 29.6654 29.0446 29.1646 28.6789 28.7954C28.3132 28.4262 27.8172 28.2188 27.3 28.2188ZM40.5697 22.6119C40.3714 22.1348 40.038 21.7274 39.6113 21.4407C39.1847 21.1539 38.6838 21.0007 38.1712 21H32.0288C31.5199 21.0001 31.0223 21.1509 30.5975 21.4338C30.1727 21.7167 29.8395 22.1192 29.6392 22.5914L28.0475 26.25H42.1525L40.5697 22.6119Z" fill="white"/>
</svg>
