<svg width="42" height="42" viewBox="0 0 41 41" fill="none" xmlns="http://www.w3.org/2000/svg">
<path d="M39.5025 8.59238L32.5678 1.65762C32.3195 1.40938 31.9111 1.40938 31.6629 1.65762L29.8531 3.46738C29.6049 3.71563 29.6049 4.12402 29.8531 4.37227L33.3125 7.83965V12.8125C33.3125 15.0627 34.9861 16.9205 37.1562 17.2328V30.1094C37.1562 31.1664 36.2914 32.0312 35.2344 32.0312C34.1773 32.0312 33.3125 31.1664 33.3125 30.1094V27.5469C33.3125 23.6551 30.1574 20.5 26.2656 20.5H25.625V3.84375C25.625 1.72168 23.9033 0 21.7812 0H6.40625C4.28418 0 2.5625 1.72168 2.5625 3.84375V37.1562H0.640625C0.288281 37.1562 0 37.4445 0 37.7969V40.3594C0 40.7117 0.288281 41 0.640625 41H27.5469C27.8992 41 28.1875 40.7117 28.1875 40.3594V37.7969C28.1875 37.4445 27.8992 37.1562 27.5469 37.1562H25.625V24.3438H26.2656C28.0354 24.3438 29.4688 25.7771 29.4688 27.5469V29.773C29.4688 32.792 31.6309 35.5387 34.6338 35.851C38.0771 36.1953 41 33.4887 41 30.1094V12.2199C41 10.8586 40.4635 9.55332 39.5025 8.59238ZM21.7812 37.1562H6.40625V19.2188H21.7812V37.1562ZM21.7812 15.375H6.40625V3.84375H21.7812V15.375Z" fill="white"/>
</svg>
