<svg width="42" height="42" viewBox="0 0 47 38" fill="none" xmlns="http://www.w3.org/2000/svg">
<path d="M42.959 14.4355L39.2088 5.14453C38.0152 2.1875 35.1394 0.25 31.9424 0.25H15.0576C11.8616 0.25 8.98483 2.1875 7.79123 5.14453L4.04004 14.4355C1.6029 16.1289 0 18.9365 0 22.124V35.4062C0 36.7002 1.0526 37.75 2.35 37.75H3.91667C5.21406 37.75 6.26667 36.7002 6.26667 35.4062V33.0625H40.7333V35.4062C40.7333 36.7002 41.7859 37.75 43.0833 37.75H44.65C45.9474 37.75 47 36.7002 47 35.4062V22.125C47 18.9365 45.3971 16.1289 42.959 14.4355ZM12.1515 6.89551C12.6313 5.70606 13.772 4.9375 15.0576 4.9375H31.9424C33.228 4.9375 34.3688 5.70606 34.8485 6.89551L37.2113 12.749H9.78873L12.1515 6.89551ZM42.3 26.8125C42.3 27.6738 41.597 28.375 40.7333 28.375H6.26667C5.40304 28.375 4.7 27.6738 4.7 26.8125V22.125C4.7 19.54 6.80815 17.4375 9.4 17.4375H37.6C40.1919 17.4375 42.3 19.54 42.3 22.125V26.8125ZM10.9667 19.7803C9.08667 19.7803 7.83333 21.0264 7.83333 22.8965C7.83333 24.7666 9.08667 26.0127 10.9667 26.0127C12.8467 26.0127 15.6667 26.3242 15.6667 24.4541C15.6667 22.585 12.8467 19.7803 10.9667 19.7803ZM36.0333 19.7803C34.1533 19.7803 31.3333 22.585 31.3333 24.4541C31.3333 26.3242 34.1533 26.0127 36.0333 26.0127C37.9133 26.0127 39.1667 24.7666 39.1667 22.8965C39.1667 21.0273 37.9133 19.7803 36.0333 19.7803Z" fill="white"/>
</svg>
