<svg width="42" height="42" viewBox="0 0 33 44" xmlns="http://www.w3.org/2000/svg" fill="red">
<path d="M23.143 19.4047C22.8078 19.0695 22.2664 19.0695 21.9312 19.3961L14.3687 26.8984L11.0945 23.5898C10.7594 23.2547 10.218 23.2547 9.88281 23.5812L7.85469 25.5922C7.51953 25.9273 7.51953 26.4688 7.84609 26.8039L13.7328 32.7422C14.068 33.0773 14.6094 33.0773 14.9445 32.7508L25.1367 22.6445C25.4719 22.3094 25.4719 21.768 25.1453 21.4328L23.143 19.4047ZM28.875 5.5H22C22 2.46641 19.5336 0 16.5 0C13.4664 0 11 2.46641 11 5.5H4.125C1.84766 5.5 0 7.34766 0 9.625V39.875C0 42.1523 1.84766 44 4.125 44H28.875C31.1523 44 33 42.1523 33 39.875V9.625C33 7.34766 31.1523 5.5 28.875 5.5ZM16.5 4.125C17.2563 4.125 17.875 4.74375 17.875 5.5C17.875 6.25625 17.2563 6.875 16.5 6.875C15.7437 6.875 15.125 6.25625 15.125 5.5C15.125 4.74375 15.7437 4.125 16.5 4.125ZM28.875 39.1875C28.875 39.5656 28.5656 39.875 28.1875 39.875H4.8125C4.43437 39.875 4.125 39.5656 4.125 39.1875V10.3125C4.125 9.93437 4.43437 9.625 4.8125 9.625H8.25V12.375C8.25 13.1313 8.86875 13.75 9.625 13.75H23.375C24.1313 13.75 24.75 13.1313 24.75 12.375V9.625H28.1875C28.5656 9.625 28.875 9.93437 28.875 10.3125V39.1875Z" fill="white"/>
</svg>
