<svg width="42" height="42" viewBox="0 0 47 42" fill="none" xmlns="http://www.w3.org/2000/svg">
<path d="M45.6943 18.375H43.2872C42.3815 16.2996 40.9454 14.5277 39.1665 13.1742V7.875H37.861C35.3886 7.875 33.1447 8.70352 31.2516 10.0242C31.2842 9.74531 31.3332 9.47461 31.3332 9.1875C31.3332 4.10977 27.2452 0 22.1943 0C17.1434 0 13.0554 4.10977 13.0554 9.1875C13.0554 9.9832 13.1778 10.7461 13.3655 11.4762C9.37539 13.1086 6.36445 16.6605 5.4832 21H4.56931C3.36168 21 2.40699 19.8926 2.65178 18.6375C2.83129 17.7023 3.70438 17.0625 4.65091 17.0625H4.73251C5.00178 17.0625 5.22209 16.841 5.22209 16.5703V14.9297C5.22209 14.659 5.00178 14.4375 4.73251 14.4375C2.40699 14.4375 0.334418 16.1109 0.0406681 18.4242C-0.31836 21.2297 1.85213 23.625 4.56931 23.625H5.22209C5.22209 27.907 7.29466 31.6723 10.4443 34.0676V40.6875C10.4443 41.4094 11.0318 42 11.7499 42H20.8888C21.6068 42 22.1943 41.4094 22.1943 40.6875V36.75H27.4165V40.6875C27.4165 41.4094 28.004 42 28.7221 42H37.861C38.579 42 39.1665 41.4094 39.1665 40.6875V34.0512C40.1212 33.3129 40.9943 32.468 41.7205 31.5H45.6943C46.4124 31.5 46.9999 30.9094 46.9999 30.1875V19.6875C46.9999 18.9656 46.4124 18.375 45.6943 18.375ZM22.1943 3.9375C25.0747 3.9375 27.4165 6.2918 27.4165 9.1875C27.4165 9.64688 27.3431 10.0816 27.2289 10.5H18.2776C17.9105 10.5 17.5596 10.582 17.1924 10.6066C17.0618 10.1555 16.9721 9.67969 16.9721 9.1875C16.9721 6.2918 19.3139 3.9375 22.1943 3.9375ZM43.0832 27.5625H39.7704C37.8528 30.1137 38.1874 29.8512 35.2499 32.107V38.0625H31.3332V32.8125H18.2776V38.0625H14.361V32.107C13.1697 31.2047 9.13876 28.8422 9.13876 23.625C9.13876 18.5555 13.2349 14.4375 18.2776 14.4375H31.937C32.7122 13.8141 33.7485 12.8543 35.2499 12.2883V15.1348C38.9544 17.9566 38.8565 18.0223 40.725 22.3125H43.0832V27.5625ZM35.2499 21C34.5318 21 33.9443 21.5906 33.9443 22.3125C33.9443 23.0344 34.5318 23.625 35.2499 23.625C35.9679 23.625 36.5554 23.0344 36.5554 22.3125C36.5554 21.5906 35.9679 21 35.2499 21Z" fill="white"/>
</svg>
