<svg width="42" height="42" viewBox="0 0 42 42" fill="none" xmlns="http://www.w3.org/2000/svg">
<path d="M23.4946 19.6645L19.3873 18.4915C19.2428 18.4499 19.1158 18.3626 19.0253 18.2426C18.9347 18.1226 18.8856 17.9765 18.8852 17.8262C18.8852 17.4456 19.1953 17.1355 19.5776 17.1355H22.2666C22.5619 17.1355 22.8473 17.1987 23.1082 17.3176C23.502 17.4989 23.9589 17.4579 24.2657 17.1511L25.7029 15.7139C26.1352 15.2816 26.0859 14.5425 25.5757 14.2062C24.7964 13.6918 23.9064 13.3768 22.9688 13.2661V11.8125C22.9688 11.0873 22.3814 10.5 21.6562 10.5H20.3438C19.6186 10.5 19.0312 11.0873 19.0312 11.8125V13.253C16.5465 13.5499 14.6532 15.7943 14.9855 18.425C15.2234 20.3077 16.6802 21.8137 18.5054 22.3355L22.6127 23.5085C22.7572 23.5501 22.8842 23.6374 22.9747 23.7574C23.0653 23.8774 23.1144 24.0235 23.1148 24.1738C23.1148 24.5544 22.8047 24.8645 22.4224 24.8645H19.7334C19.4381 24.8645 19.1527 24.8013 18.8918 24.6824C18.498 24.5011 18.0411 24.5421 17.7343 24.8489L16.2971 26.2861C15.8648 26.7184 15.9141 27.4575 16.4243 27.7938C17.2036 28.3082 18.0936 28.6232 19.0312 28.7339V30.1875C19.0312 30.9127 19.6186 31.5 20.3438 31.5H21.6562C22.3814 31.5 22.9688 30.9127 22.9688 30.1875V28.747C25.4535 28.4501 27.3468 26.2057 27.0145 23.575C26.7766 21.6923 25.3198 20.1863 23.4946 19.6645ZM42 21C42 18.0059 40.4578 15.3891 38.1691 13.8879C38.727 11.1891 37.9477 8.25234 35.8477 6.15234C33.7477 4.04414 30.8027 3.27305 28.1121 3.83086C26.5945 1.53398 23.9777 0 21 0C18.0223 0 15.3973 1.53398 13.8879 3.83086C11.1891 3.27305 8.25234 4.05234 6.15234 6.15234C4.04414 8.25234 3.27305 11.1973 3.83086 13.8879C1.52578 15.4055 0 18.0305 0 21C0 23.9777 1.53398 26.6027 3.83086 28.1121C3.27305 30.8109 4.05234 33.7477 6.15234 35.8477C8.25234 37.9559 11.1727 38.727 13.8879 38.1691C15.4055 40.4742 18.0305 42 21 42C23.9859 42 26.6027 40.4578 28.1121 38.1691C30.8273 38.727 33.7477 37.9477 35.8477 35.8477C37.9559 33.7477 38.727 30.8027 38.1691 28.1121C40.4742 26.5945 42 23.9695 42 21ZM33.116 26.0285C33.8625 27.6609 35.6016 30.5238 33.0586 33.0668C30.7617 35.3637 28.5223 34.2562 26.0203 33.1242C25.3887 34.8141 24.6012 38.0625 21 38.0625C17.284 38.0625 16.5129 34.5516 15.9797 33.1242C14.2488 33.9117 11.4762 35.6016 8.9332 33.0586C6.3082 30.4336 8.24414 27.4066 8.87578 26.0203C7.18594 25.3887 3.9375 24.6012 3.9375 21C3.9375 17.284 7.44844 16.5129 8.88398 15.9715C8.1375 14.3391 6.39844 11.4762 8.94141 8.9332C11.5664 6.3082 14.5934 8.24414 15.9797 8.87578C16.6113 7.18594 17.3988 3.9375 21 3.9375C24.716 3.9375 25.4871 7.44844 26.0203 8.89219C27.6527 8.1457 30.5156 6.40664 33.0586 8.94961C35.6836 11.5746 33.7477 14.6016 33.116 15.9879C34.8059 16.6195 38.0543 17.407 38.0543 21.0082C38.0543 24.7242 34.5434 25.4953 33.116 26.0285Z" fill="#00A1DE"/>
</svg>
